<?xml version="1.0" standalone="no"?>
<!DOCTYPE svg PUBLIC "-//W3C//DTD SVG 20010904//EN"
 "http://www.w3.org/TR/2001/REC-SVG-20010904/DTD/svg10.dtd">
<svg version="1.0" xmlns="http://www.w3.org/2000/svg"
 width="260.000000pt" height="260.000000pt" viewBox="0 0 260.000000 260.000000"
 preserveAspectRatio="xMidYMid meet">
<metadata>
Created by potrace 1.14, written by Peter Selinger 2001-2017
</metadata>
<g transform="translate(0.000000,260.000000) scale(0.100000,-0.100000)"
fill="#000000" stroke="none">
<path d="M1274 2376 c-6 -7 -17 -29 -24 -48 -15 -40 -35 -48 -116 -48 -30 0
-44 4 -44 13 0 7 -11 23 -25 35 -14 12 -25 26 -25 32 0 5 -11 10 -25 10 -14 0
-25 -4 -25 -9 0 -5 -15 -12 -32 -16 -108 -22 -108 -22 -108 -71 0 -25 -6 -52
-12 -60 -7 -8 -18 -20 -24 -27 -6 -7 -30 -19 -52 -26 -36 -12 -45 -12 -79 4
-21 10 -41 23 -45 29 -6 8 -8 8 -8 0 0 -7 -8 -14 -17 -18 -44 -14 -136 -103
-129 -123 3 -6 8 -28 12 -47 3 -20 10 -36 15 -36 9 0 -5 -19 -48 -68 -13 -14
-23 -29 -23 -33 0 -5 -11 -9 -25 -9 -14 0 -25 5 -25 10 0 6 -15 10 -34 10 -25
0 -36 -5 -41 -19 -3 -11 -11 -21 -18 -24 -7 -3 -22 -30 -32 -61 -11 -31 -23
-56 -27 -56 -15 0 -8 -19 20 -48 42 -46 54 -62 44 -62 -5 0 -14 -25 -21 -55
-11 -48 -15 -55 -37 -55 -13 0 -24 -4 -24 -9 0 -5 -13 -11 -29 -14 -23 -5 -29
-12 -34 -44 -11 -63 -8 -148 6 -165 6 -9 28 -21 49 -27 36 -12 36 -13 40 -74
3 -50 1 -65 -13 -75 -68 -52 -71 -57 -64 -106 4 -25 11 -46 15 -46 4 0 13 -20
19 -45 10 -38 15 -45 36 -45 14 0 25 -4 25 -10 0 -5 14 -10 31 -10 35 0 47
-11 72 -63 17 -37 17 -41 0 -78 -9 -21 -20 -39 -25 -39 -13 0 -9 -29 7 -47 8
-10 35 -40 59 -66 41 -45 47 -48 80 -41 20 3 36 10 36 15 0 15 39 10 61 -9 73
-59 72 -58 65 -117 -6 -53 -5 -56 19 -65 14 -5 25 -13 25 -18 0 -11 103 -52
128 -52 10 0 31 14 49 30 31 29 63 40 63 21 0 -6 20 -13 45 -16 44 -7 44 -7
55 -61 13 -60 12 -60 118 -70 89 -8 114 3 132 56 12 37 15 39 65 45 69 9 86 2
109 -39 10 -19 24 -37 32 -40 17 -7 84 5 84 14 0 5 17 11 38 15 57 9 65 18 70
79 3 39 9 56 18 56 8 0 14 4 14 8 0 9 70 42 89 42 16 0 73 -31 84 -45 4 -7 10
-6 15 1 4 6 14 14 22 18 31 14 56 33 89 64 29 28 32 36 27 67 -4 19 -11 35
-16 35 -18 0 -10 45 10 58 11 7 20 19 20 27 0 30 42 46 102 39 55 -6 58 -6 68
20 5 14 14 26 18 26 5 0 17 21 27 48 10 26 23 50 29 55 7 5 5 11 -6 18 -10 5
-18 16 -18 23 0 7 -12 22 -26 35 -21 18 -24 27 -18 54 3 18 10 34 15 35 5 2 9
14 9 27 0 28 19 40 77 50 47 7 46 5 58 137 6 66 6 67 -19 74 -14 3 -26 10 -26
14 0 4 -13 13 -29 19 -25 11 -29 19 -35 70 -7 65 -2 86 22 95 21 7 55 28 63
39 7 9 -1 59 -10 67 -4 3 -12 28 -19 55 -7 28 -17 54 -21 58 -5 5 -34 11 -65
14 -31 3 -56 10 -56 15 0 5 -9 18 -20 30 -30 32 -35 74 -14 117 11 20 22 38
27 39 21 10 -4 52 -65 110 -16 14 -28 32 -28 40 0 11 -9 13 -42 9 -24 -3 -44
-11 -46 -16 -6 -19 -56 -12 -70 9 -7 11 -18 20 -25 20 -19 0 -63 53 -49 58 13
4 17 102 4 102 -5 0 -17 8 -28 18 -11 10 -41 27 -67 37 -26 10 -47 22 -47 26
0 20 -27 6 -50 -26 -14 -19 -33 -37 -43 -41 -23 -7 -87 4 -87 16 0 5 -10 10
-22 12 -17 2 -24 11 -26 31 -2 15 -7 27 -12 27 -5 0 -11 13 -15 29 -5 25 -12
29 -52 35 -72 10 -137 6 -149 -8z m-84 -271 l0 -55 55 0 55 0 0 55 c0 48 2 55
20 55 18 0 20 -7 20 -55 l0 -55 55 0 55 0 0 50 c0 43 11 66 22 43 2 -5 35 -16
73 -26 39 -10 71 -22 73 -26 2 -5 30 -19 62 -31 33 -12 60 -26 60 -31 0 -4 17
-16 38 -26 20 -9 45 -28 55 -40 10 -13 23 -23 28 -23 13 0 79 -66 79 -79 0 -5
10 -18 23 -28 24 -21 45 -49 53 -75 4 -10 10 -18 13 -18 4 0 18 -24 32 -52 13
-29 26 -55 29 -58 9 -8 40 -110 40 -131 0 -11 4 -19 9 -19 5 0 14 -46 21 -102
10 -78 10 -127 1 -211 -6 -61 -15 -113 -20 -116 -5 -3 -14 -32 -22 -65 -7 -32
-18 -63 -24 -70 -6 -6 -20 -33 -30 -59 -10 -26 -23 -51 -29 -55 -6 -4 -17 -18
-23 -32 -25 -56 -154 -189 -228 -236 -16 -10 -32 -21 -35 -25 -3 -3 -29 -14
-57 -24 -29 -11 -53 -22 -53 -25 0 -4 -28 -15 -62 -25 -35 -11 -65 -22 -68
-26 -8 -10 -164 -29 -241 -29 -85 0 -223 19 -227 31 -2 5 -10 9 -18 9 -26 0
-114 32 -114 41 0 5 -9 9 -19 9 -11 0 -22 4 -26 9 -3 5 -19 12 -35 16 -17 4
-30 10 -30 13 0 4 -18 16 -41 26 -22 11 -45 28 -50 38 -5 10 -14 18 -20 18
-14 0 -93 80 -102 102 -3 10 -11 18 -17 18 -6 0 -15 10 -20 23 -13 28 -30 55
-52 81 -10 11 -18 25 -18 32 0 7 -6 19 -13 26 -13 13 -47 110 -47 134 0 8 -4
14 -9 14 -38 0 -39 472 -2 500 4 3 15 31 25 63 10 31 21 57 25 57 4 0 15 23
25 50 10 28 22 50 27 50 5 0 14 10 19 23 6 12 16 30 22 41 19 27 160 166 169
166 4 0 19 11 33 25 14 14 32 25 39 25 8 0 17 6 20 13 2 6 28 20 56 31 28 10
51 21 51 25 0 8 65 28 119 37 23 4 41 10 41 15 0 7 31 13 88 17 20 2 22 -2 22
-53z"/>
<path d="M1190 1971 c0 -79 9 -88 75 -75 l35 6 0 69 0 69 -55 0 -55 0 0 -69z"/>
<path d="M1340 1975 c0 -60 2 -66 24 -76 14 -7 40 -9 60 -5 l36 7 0 69 0 70
-60 0 -60 0 0 -65z"/>
<path d="M978 2009 c-10 -5 -18 -15 -18 -20 0 -6 -7 -17 -15 -25 -19 -20 -19
-48 1 -68 12 -13 20 -14 37 -5 17 10 23 8 38 -12 10 -13 24 -31 31 -40 7 -8
22 -31 32 -50 11 -19 28 -43 38 -53 10 -11 18 -26 18 -33 0 -21 47 -35 70 -20
19 11 28 57 12 57 -4 0 -16 23 -26 50 -10 28 -24 54 -30 58 -7 4 -21 28 -31
55 -10 26 -22 47 -27 47 -4 0 -13 11 -18 25 -15 38 -74 56 -112 34z"/>
<path d="M1485 1993 c11 -3 22 -8 25 -12 3 -3 36 -14 75 -24 42 -11 79 -28 94
-43 13 -13 28 -24 34 -24 14 0 77 -72 77 -87 0 -7 6 -16 13 -20 7 -4 24 -42
37 -83 14 -41 28 -77 32 -80 15 -11 24 -129 17 -210 -4 -47 -8 -100 -8 -117
-2 -58 -21 -35 -21 23 0 51 -3 60 -32 88 -18 17 -40 45 -48 61 -8 17 -18 33
-23 36 -4 3 -13 29 -19 57 -17 70 -38 69 -38 -3 0 -30 3 -55 8 -55 4 0 13 -15
21 -32 8 -18 22 -41 32 -50 9 -10 23 -42 29 -73 6 -30 15 -55 19 -55 4 0 14
-18 21 -40 9 -28 16 -37 22 -28 6 10 8 8 8 -4 0 -12 8 -18 23 -19 113 -4 112
-3 115 -25 2 -12 -3 -28 -10 -35 -8 -8 -24 -40 -37 -71 -13 -32 -27 -58 -31
-58 -4 0 -11 -12 -14 -26 -4 -14 -21 -39 -38 -54 l-31 -28 -33 35 c-40 42
-101 56 -124 28 -11 -13 -11 -22 -1 -51 11 -30 11 -38 -3 -53 -9 -10 -16 -22
-16 -27 0 -5 -9 -15 -20 -22 -18 -11 -19 -10 -7 16 6 15 17 31 24 35 18 11 16
42 -2 61 -20 19 -19 24 8 48 l22 19 -49 -4 c-38 -4 -54 -11 -78 -37 -46 -51
-59 -100 -26 -100 9 0 33 -24 68 -67 14 -17 12 -60 -2 -66 -10 -4 -10 -6 0 -6
14 -1 18 -111 3 -111 -5 0 -11 -13 -14 -30 -8 -39 -26 -39 -33 0 -8 35 -14 37
-34 10 -15 -21 -40 -27 -40 -10 0 6 -4 10 -10 10 -5 0 -10 -7 -10 -16 0 -13
-8 -15 -35 -12 -19 2 -35 0 -35 -4 0 -4 -11 -8 -25 -8 -14 0 -25 -5 -25 -11 0
-13 109 -2 127 13 12 10 33 8 94 -7 17 -5 31 -2 41 9 19 18 32 103 23 145 -6
30 12 111 26 111 4 0 17 17 29 37 17 29 20 46 15 80 l-6 43 40 0 c23 0 41 -3
41 -7 0 -9 55 -73 63 -73 10 0 77 64 77 73 0 5 6 15 13 21 7 6 22 31 32 56 11
25 22 47 25 50 9 9 30 76 30 99 0 12 -8 25 -17 28 -10 4 -22 11 -26 17 -6 8
-10 7 -14 -1 -2 -7 -21 -13 -40 -13 -31 0 -35 2 -30 23 12 47 28 283 22 321
-8 51 -26 109 -35 116 -4 3 -17 35 -28 72 -12 37 -34 80 -48 95 -53 58 -69 73
-76 73 -5 0 -16 8 -26 18 -9 9 -37 24 -62 32 -25 8 -47 17 -50 21 -3 4 -30 10
-60 13 -30 3 -46 3 -35 -1z"/>
<path d="M1144 1974 c3 -9 6 -18 6 -20 0 -2 5 -4 10 -4 6 0 10 9 10 20 0 12
-7 20 -16 20 -11 0 -14 -5 -10 -16z"/>
<path d="M825 1863 c-21 -23 -25 -36 -23 -72 3 -47 18 -61 39 -39 10 11 17 9
38 -12 25 -24 42 -48 57 -80 4 -8 16 -21 26 -28 10 -7 18 -19 18 -27 0 -8 6
-18 14 -22 8 -4 23 -24 33 -43 21 -38 49 -48 82 -30 24 12 28 51 8 72 -7 7
-21 32 -31 56 -11 23 -22 42 -26 42 -4 0 -17 25 -30 54 -12 30 -29 57 -36 60
-8 3 -14 12 -14 19 0 8 -14 28 -30 46 -40 41 -88 43 -125 4z"/>
<path d="M1248 1883 c-50 -4 -60 -18 -35 -45 20 -23 47 -78 47 -98 0 -10 6
-21 13 -23 8 -4 8 -8 2 -14 -6 -4 -16 -20 -24 -35 -15 -30 -62 -45 -101 -33
-20 6 -20 5 -8 -17 7 -12 17 -26 21 -29 14 -10 13 -82 -1 -87 -7 -2 -12 -8
-12 -13 0 -5 36 -9 80 -9 l80 0 0 205 c0 113 -3 204 -7 203 -5 -1 -29 -3 -55
-5z"/>
<path d="M845 1695 c-5 -2 -22 -6 -37 -9 -19 -4 -28 -13 -28 -26 0 -11 -7 -20
-15 -20 -8 0 -15 5 -15 10 0 16 -78 12 -97 -5 -10 -8 -26 -20 -36 -27 -26 -19
-23 -148 4 -148 5 0 9 -4 9 -10 0 -5 -5 -10 -11 -10 -18 0 -38 -32 -38 -60 0
-22 1 -23 10 -7 15 26 58 22 69 -8 5 -14 14 -25 20 -25 5 0 11 -8 11 -17 1
-10 5 11 9 46 11 94 22 100 183 101 78 0 127 4 127 10 0 6 -4 10 -9 10 -5 0
-16 16 -25 35 -9 19 -21 35 -25 35 -5 0 -14 13 -20 28 -15 36 -73 101 -86 97z"/>
<path d="M762 1418 c-17 -17 -17 -359 0 -376 7 -7 42 -12 88 -12 71 0 78 -2
110 -31 33 -31 35 -31 118 -27 78 4 86 7 104 31 17 23 27 27 67 27 26 0 52 5
59 12 13 13 18 341 6 372 -5 14 -39 16 -273 16 -194 0 -270 -3 -279 -12z m384
-70 c35 -16 76 -57 92 -92 14 -32 16 -115 2 -150 -14 -37 -70 -96 -91 -96 -9
0 -19 -6 -21 -12 -3 -9 -25 -13 -65 -12 -47 1 -65 5 -84 22 -12 12 -29 22 -36
22 -7 0 -18 11 -22 23 -5 13 -17 32 -27 42 -21 21 -26 146 -6 153 7 2 12 9 12
16 0 16 63 74 93 86 33 13 122 12 153 -2z"/>
<path d="M995 1310 c-89 -37 -111 -172 -39 -244 73 -73 209 -49 245 42 14 36
11 120 -6 152 -9 16 -29 36 -45 45 -31 16 -122 19 -155 5z"/>
<path d="M1502 1324 c-40 -41 -68 -74 -63 -74 5 0 16 7 25 15 8 8 18 15 23 15
18 1 65 52 79 85 8 19 13 35 12 34 -2 0 -36 -34 -76 -75z"/>
<path d="M1670 1381 c0 -11 -6 -26 -13 -33 -7 -7 -22 -34 -32 -61 -10 -26 -22
-47 -26 -47 -5 0 -9 -7 -9 -15 0 -8 -15 -24 -32 -35 -18 -10 -37 -23 -43 -27
-5 -5 -21 -13 -35 -20 -24 -10 -24 -11 -5 -19 11 -4 29 -16 39 -26 17 -15 38
-18 142 -18 92 0 123 3 127 13 7 18 -9 98 -21 106 -5 3 -11 34 -14 68 -4 56
-8 66 -41 98 -31 31 -37 33 -37 16z"/>
<path d="M572 1313 c-23 -20 -42 -42 -42 -48 0 -16 70 -85 87 -85 7 0 16 -6
19 -14 4 -9 13 -5 36 16 26 24 29 33 24 63 -4 19 -11 35 -17 35 -5 0 -19 16
-30 35 -12 19 -24 35 -28 35 -4 0 -26 -17 -49 -37z"/>
<path d="M490 1168 c-6 -18 -14 -73 -17 -122 -6 -94 8 -143 49 -174 10 -7 18
-19 18 -27 0 -7 8 -16 18 -19 10 -4 29 -16 42 -28 17 -16 39 -23 79 -25 72 -5
86 4 77 51 -8 41 -50 87 -96 106 -17 7 -30 18 -30 25 0 7 -7 16 -16 19 -13 5
-16 17 -12 62 3 32 11 59 18 64 11 7 9 13 -11 29 -13 11 -28 20 -33 21 -4 0
-17 11 -28 25 -26 34 -44 31 -58 -7z"/>
<path d="M1368 1053 c-8 -37 4 -133 17 -133 26 0 33 61 13 117 -13 37 -24 42
-30 16z"/>
<path d="M1297 972 c-10 -10 -17 -22 -17 -26 0 -5 -11 -17 -25 -28 -14 -11
-25 -24 -25 -29 0 -10 -59 -69 -70 -69 -3 0 -15 -8 -26 -18 -24 -22 -67 -39
-121 -47 -36 -6 -43 -10 -43 -30 0 -43 10 -55 46 -55 19 0 34 5 34 10 0 6 7
10 15 10 30 0 110 33 123 51 7 11 19 19 25 19 26 0 107 110 107 145 0 8 5 15
10 15 6 0 10 16 10 35 0 39 -17 46 -43 17z"/>
<path d="M789 972 c-8 -4 -22 -14 -31 -22 -13 -13 -13 -18 6 -50 11 -19 24
-36 28 -38 4 -2 8 -14 8 -27 0 -19 6 -24 35 -27 35 -4 95 17 95 33 0 4 17 16
38 26 20 9 45 25 55 34 17 15 16 17 -21 22 -21 4 -52 18 -68 32 -23 20 -39 25
-79 24 -27 0 -57 -3 -66 -7z"/>
<path d="M1215 968 c-11 -6 -22 -14 -25 -18 -3 -4 -28 -17 -57 -30 -28 -12
-54 -28 -57 -36 -3 -8 -11 -14 -19 -14 -7 0 -22 -8 -33 -17 -10 -10 -32 -25
-49 -33 -16 -8 -40 -25 -53 -37 -15 -13 -40 -23 -65 -26 -39 -3 -38 -4 11 -5
47 -2 92 14 112 39 3 3 24 9 48 13 53 8 81 23 137 74 18 17 34 35 74 85 15 19
5 22 -24 5z"/>
<path d="M1455 966 c2 -6 6 -24 10 -40 l6 -28 19 23 c28 31 25 46 -9 51 -17 3
-28 0 -26 -6z"/>
<path d="M1280 759 c-74 -58 -73 -55 -19 -55 l49 1 0 38 c0 20 -1 37 -2 37 -2
-1 -14 -10 -28 -21z"/>
<path d="M1525 748 c-6 -30 -8 -48 -6 -76 1 -21 3 -22 16 -8 9 9 15 33 15 60
0 48 -16 63 -25 24z"/>
<path d="M1450 736 c0 -14 -4 -26 -10 -26 -5 0 -10 -9 -10 -20 0 -11 4 -20 9
-20 5 0 13 -10 17 -22 7 -22 8 -22 16 7 9 33 2 91 -12 100 -6 4 -10 -5 -10
-19z"/>
<path d="M1391 728 c-1 -10 -5 -18 -11 -18 -5 0 -10 -18 -10 -40 0 -22 4 -40
9 -40 5 0 11 -8 13 -17 2 -10 7 2 11 27 4 25 3 59 -2 75 -5 17 -10 22 -10 13z"/>
<path d="M1063 653 c-8 -3 -13 -23 -13 -49 0 -37 3 -44 19 -44 20 0 31 19 31
55 0 25 -19 45 -37 38z"/>
<path d="M1126 653 c-3 -3 -6 -28 -6 -55 0 -36 4 -48 15 -48 11 0 15 12 15 49
0 47 -9 68 -24 54z"/>
<path d="M1179 648 c-6 -66 -5 -95 3 -105 18 -23 28 -3 28 58 0 46 -3 59 -15
59 -8 0 -16 -6 -16 -12z"/>
<path d="M1240 595 l0 -66 28 3 c26 3 27 5 27 63 0 58 -1 60 -27 63 l-28 3 0
-66z"/>
</g>
</svg>
